<svg width="24" height="28" viewBox="0 0 24 28" fill="none" xmlns="http://www.w3.org/2000/svg">
<path stroke="none" fill-rule="evenodd" clip-rule="evenodd" d="M0 11.9398C0 5.35544 5.38386 0 11.9996 0C18.6169 0 24 5.35619 24 11.9398C24 15.4903 22.4347 18.6835 19.9546 20.8724L22.8536 27.018C22.8871 27.0781 22.8971 27.1484 22.8816 27.2154C22.8661 27.2823 22.8263 27.3412 22.7698 27.3804C22.7133 27.4196 22.6443 27.4363 22.5761 27.4274C22.508 27.4185 22.4456 27.3846 22.4011 27.3322L17.5783 22.5094C15.9107 23.3842 14.0123 23.8796 11.9996 23.8796C9.93848 23.8819 7.92426 23.3527 6.14515 22.3592L2.73927 25.6298C2.70644 25.6771 2.65616 25.7095 2.59949 25.7197C2.54282 25.7299 2.48441 25.7173 2.43709 25.6844C2.38978 25.6516 2.35745 25.6013 2.34721 25.5446C2.33697 25.488 2.34966 25.4296 2.38249 25.3822L6.79133 15.1944C7.22523 15.9037 7.80513 16.5126 8.49248 16.9805C9.18041 17.4488 9.96018 17.7651 10.7799 17.9086L9.00057 19.6172C9.95578 19.9891 10.9727 20.1805 11.9996 20.1809C12.9723 20.1809 13.9064 20.0132 14.7742 19.7054L9.44255 14.3737L9.45601 14.3662C9.14943 14.0055 8.92171 13.5846 8.78749 13.1306C8.65327 12.6767 8.61552 12.1996 8.67666 11.7302C8.73781 11.2607 8.89649 10.8093 9.14253 10.4048C9.38856 10.0004 9.71649 9.65189 10.1052 9.38175C10.4948 9.11054 10.9363 8.92312 11.402 8.83134C11.8677 8.73956 12.3473 8.74543 12.8106 8.84856C13.2739 8.95169 13.7108 9.14985 14.0935 9.4305C14.4763 9.71115 14.7967 10.0682 15.0343 10.479L15.0478 10.47L18.2755 17.3127C19.5258 15.869 20.2826 13.9908 20.2826 11.9398C20.2826 7.39514 16.5667 3.69869 11.9996 3.69869C7.43254 3.69869 3.71739 7.39514 3.71739 11.9398C3.71836 13.1002 3.96726 14.247 4.44741 15.3034L2.665 19.4247C1.00153 17.3753 0 14.7731 0 11.9398ZM6.79133 15.1944L6.79176 15.1934L6.79026 15.1927C6.79062 15.1933 6.79097 15.1939 6.79133 15.1944Z" fill="white"></path>
</svg>