<svg width="27" height="27" viewBox="0 0 27 27" fill="none" xmlns="http://www.w3.org/2000/svg">
<path stroke="none" d="M13.5 21.17C9.23786 21.17 5.78571 17.703 5.78571 13.4225C5.78571 9.81994 8.25428 6.77905 11.5714 5.92683V0.019364C5.03357 0.949063 0 6.60473 0 13.4419C0 20.9376 6.05571 27 13.5 27C16.5279 27 19.3243 25.9928 21.5807 24.3077L17.415 20.1241C16.2579 20.7826 14.9271 21.17 13.5 21.17Z" fill="white"></path>
<path stroke="none" d="M21.2143 13.4225C21.2143 14.8558 20.8286 16.1923 20.1536 17.3544L24.3193 21.538C26.0164 19.2719 27 16.4634 27 13.4225C27 6.58537 21.9664 0.949068 15.4286 0V5.90746C18.7457 6.77905 21.2143 9.81994 21.2143 13.4225Z" fill="white"></path>
</svg>